solid part
  facet normal 0 0 0
    outer loop
      vertex 0 0 0
      vertex 75 0 0
      vertex 75 60 0
    endloop
  endfacet
  facet normal 0 0 0
    outer loop
      vertex 0 0 0
      vertex 75 60 0
      vertex 0 60 0
    endloop
  endfacet
  facet normal 0 0 0
    outer loop
      vertex 0 0 5
      vertex 75 0 5
      vertex 75 60 5
    endloop
  endfacet
  facet normal 0 0 0
    outer loop
      vertex 0 0 5
      vertex 75 60 5
      vertex 0 60 5
    endloop
  endfacet
  facet normal 0 0 0
    outer loop
      vertex 0 0 0
      vertex 75 0 0
      vertex 75 0 5
    endloop
  endfacet
  facet normal 0 0 0
    outer loop
      vertex 0 0 0
      vertex 75 0 5
      vertex 0 0 5
    endloop
  endfacet
  facet normal 0 0 0
    outer loop
      vertex 75 60 0
      vertex 0 60 0
      vertex 0 60 5
    endloop
  endfacet
  facet normal 0 0 0
    outer loop
      vertex 75 60 0
      vertex 0 60 5
      vertex 75 60 5
    endloop
  endfacet
  facet normal 0 0 0
    outer loop
      vertex 75 0 0
      vertex 75 60 0
      vertex 75 60 5
    endloop
  endfacet
  facet normal 0 0 0
    outer loop
      vertex 75 0 0
      vertex 75 60 5
      vertex 75 0 5
    endloop
  endfacet
  facet normal 0 0 0
    outer loop
      vertex 0 0 0
      vertex 0 60 0
      vertex 0 60 5
    endloop
  endfacet
  facet normal 0 0 0
    outer loop
      vertex 0 0 0
      vertex 0 60 5
      vertex 0 0 5
    endloop
  endfacet
endsolid part