solid part
  facet normal 0 0 0
    outer loop
      vertex 0 0 0
      vertex 90 0 0
      vertex 90 55 0
    endloop
  endfacet
  facet normal 0 0 0
    outer loop
      vertex 0 0 0
      vertex 90 55 0
      vertex 0 55 0
    endloop
  endfacet
  facet normal 0 0 0
    outer loop
      vertex 0 0 30
      vertex 90 0 30
      vertex 90 55 30
    endloop
  endfacet
  facet normal 0 0 0
    outer loop
      vertex 0 0 30
      vertex 90 55 30
      vertex 0 55 30
    endloop
  endfacet
  facet normal 0 0 0
    outer loop
      vertex 0 0 0
      vertex 90 0 0
      vertex 90 0 30
    endloop
  endfacet
  facet normal 0 0 0
    outer loop
      vertex 0 0 0
      vertex 90 0 30
      vertex 0 0 30
    endloop
  endfacet
  facet normal 0 0 0
    outer loop
      vertex 90 55 0
      vertex 0 55 0
      vertex 0 55 30
    endloop
  endfacet
  facet normal 0 0 0
    outer loop
      vertex 90 55 0
      vertex 0 55 30
      vertex 90 55 30
    endloop
  endfacet
  facet normal 0 0 0
    outer loop
      vertex 90 0 0
      vertex 90 55 0
      vertex 90 55 30
    endloop
  endfacet
  facet normal 0 0 0
    outer loop
      vertex 90 0 0
      vertex 90 55 30
      vertex 90 0 30
    endloop
  endfacet
  facet normal 0 0 0
    outer loop
      vertex 0 0 0
      vertex 0 55 0
      vertex 0 55 30
    endloop
  endfacet
  facet normal 0 0 0
    outer loop
      vertex 0 0 0
      vertex 0 55 30
      vertex 0 0 30
    endloop
  endfacet
endsolid part