solid part
  facet normal 0 0 0
    outer loop
      vertex 0 0 0
      vertex 45 0 0
      vertex 45 35 0
    endloop
  endfacet
  facet normal 0 0 0
    outer loop
      vertex 0 0 0
      vertex 45 35 0
      vertex 0 35 0
    endloop
  endfacet
  facet normal 0 0 0
    outer loop
      vertex 0 0 12
      vertex 45 0 12
      vertex 45 35 12
    endloop
  endfacet
  facet normal 0 0 0
    outer loop
      vertex 0 0 12
      vertex 45 35 12
      vertex 0 35 12
    endloop
  endfacet
  facet normal 0 0 0
    outer loop
      vertex 0 0 0
      vertex 45 0 0
      vertex 45 0 12
    endloop
  endfacet
  facet normal 0 0 0
    outer loop
      vertex 0 0 0
      vertex 45 0 12
      vertex 0 0 12
    endloop
  endfacet
  facet normal 0 0 0
    outer loop
      vertex 45 35 0
      vertex 0 35 0
      vertex 0 35 12
    endloop
  endfacet
  facet normal 0 0 0
    outer loop
      vertex 45 35 0
      vertex 0 35 12
      vertex 45 35 12
    endloop
  endfacet
  facet normal 0 0 0
    outer loop
      vertex 45 0 0
      vertex 45 35 0
      vertex 45 35 12
    endloop
  endfacet
  facet normal 0 0 0
    outer loop
      vertex 45 0 0
      vertex 45 35 12
      vertex 45 0 12
    endloop
  endfacet
  facet normal 0 0 0
    outer loop
      vertex 0 0 0
      vertex 0 35 0
      vertex 0 35 12
    endloop
  endfacet
  facet normal 0 0 0
    outer loop
      vertex 0 0 0
      vertex 0 35 12
      vertex 0 0 12
    endloop
  endfacet
endsolid part