solid part
  facet normal 0 0 0
    outer loop
      vertex 0 0 0
      vertex 180 0 0
      vertex 180 130 0
    endloop
  endfacet
  facet normal 0 0 0
    outer loop
      vertex 0 0 0
      vertex 180 130 0
      vertex 0 130 0
    endloop
  endfacet
  facet normal 0 0 0
    outer loop
      vertex 0 0 4
      vertex 180 0 4
      vertex 180 130 4
    endloop
  endfacet
  facet normal 0 0 0
    outer loop
      vertex 0 0 4
      vertex 180 130 4
      vertex 0 130 4
    endloop
  endfacet
  facet normal 0 0 0
    outer loop
      vertex 0 0 0
      vertex 180 0 0
      vertex 180 0 4
    endloop
  endfacet
  facet normal 0 0 0
    outer loop
      vertex 0 0 0
      vertex 180 0 4
      vertex 0 0 4
    endloop
  endfacet
  facet normal 0 0 0
    outer loop
      vertex 180 130 0
      vertex 0 130 0
      vertex 0 130 4
    endloop
  endfacet
  facet normal 0 0 0
    outer loop
      vertex 180 130 0
      vertex 0 130 4
      vertex 180 130 4
    endloop
  endfacet
  facet normal 0 0 0
    outer loop
      vertex 180 0 0
      vertex 180 130 0
      vertex 180 130 4
    endloop
  endfacet
  facet normal 0 0 0
    outer loop
      vertex 180 0 0
      vertex 180 130 4
      vertex 180 0 4
    endloop
  endfacet
  facet normal 0 0 0
    outer loop
      vertex 0 0 0
      vertex 0 130 0
      vertex 0 130 4
    endloop
  endfacet
  facet normal 0 0 0
    outer loop
      vertex 0 0 0
      vertex 0 130 4
      vertex 0 0 4
    endloop
  endfacet
endsolid part