solid part
  facet normal 0 0 0
    outer loop
      vertex 0 0 0
      vertex 65 0 0
      vertex 65 55 0
    endloop
  endfacet
  facet normal 0 0 0
    outer loop
      vertex 0 0 0
      vertex 65 55 0
      vertex 0 55 0
    endloop
  endfacet
  facet normal 0 0 0
    outer loop
      vertex 0 0 5
      vertex 65 0 5
      vertex 65 55 5
    endloop
  endfacet
  facet normal 0 0 0
    outer loop
      vertex 0 0 5
      vertex 65 55 5
      vertex 0 55 5
    endloop
  endfacet
  facet normal 0 0 0
    outer loop
      vertex 0 0 0
      vertex 65 0 0
      vertex 65 0 5
    endloop
  endfacet
  facet normal 0 0 0
    outer loop
      vertex 0 0 0
      vertex 65 0 5
      vertex 0 0 5
    endloop
  endfacet
  facet normal 0 0 0
    outer loop
      vertex 65 55 0
      vertex 0 55 0
      vertex 0 55 5
    endloop
  endfacet
  facet normal 0 0 0
    outer loop
      vertex 65 55 0
      vertex 0 55 5
      vertex 65 55 5
    endloop
  endfacet
  facet normal 0 0 0
    outer loop
      vertex 65 0 0
      vertex 65 55 0
      vertex 65 55 5
    endloop
  endfacet
  facet normal 0 0 0
    outer loop
      vertex 65 0 0
      vertex 65 55 5
      vertex 65 0 5
    endloop
  endfacet
  facet normal 0 0 0
    outer loop
      vertex 0 0 0
      vertex 0 55 0
      vertex 0 55 5
    endloop
  endfacet
  facet normal 0 0 0
    outer loop
      vertex 0 0 0
      vertex 0 55 5
      vertex 0 0 5
    endloop
  endfacet
endsolid part