solid part
  facet normal 0 0 0
    outer loop
      vertex 0 0 0
      vertex 50 0 0
      vertex 50 35 0
    endloop
  endfacet
  facet normal 0 0 0
    outer loop
      vertex 0 0 0
      vertex 50 35 0
      vertex 0 35 0
    endloop
  endfacet
  facet normal 0 0 0
    outer loop
      vertex 0 0 35
      vertex 50 0 35
      vertex 50 35 35
    endloop
  endfacet
  facet normal 0 0 0
    outer loop
      vertex 0 0 35
      vertex 50 35 35
      vertex 0 35 35
    endloop
  endfacet
  facet normal 0 0 0
    outer loop
      vertex 0 0 0
      vertex 50 0 0
      vertex 50 0 35
    endloop
  endfacet
  facet normal 0 0 0
    outer loop
      vertex 0 0 0
      vertex 50 0 35
      vertex 0 0 35
    endloop
  endfacet
  facet normal 0 0 0
    outer loop
      vertex 50 35 0
      vertex 0 35 0
      vertex 0 35 35
    endloop
  endfacet
  facet normal 0 0 0
    outer loop
      vertex 50 35 0
      vertex 0 35 35
      vertex 50 35 35
    endloop
  endfacet
  facet normal 0 0 0
    outer loop
      vertex 50 0 0
      vertex 50 35 0
      vertex 50 35 35
    endloop
  endfacet
  facet normal 0 0 0
    outer loop
      vertex 50 0 0
      vertex 50 35 35
      vertex 50 0 35
    endloop
  endfacet
  facet normal 0 0 0
    outer loop
      vertex 0 0 0
      vertex 0 35 0
      vertex 0 35 35
    endloop
  endfacet
  facet normal 0 0 0
    outer loop
      vertex 0 0 0
      vertex 0 35 35
      vertex 0 0 35
    endloop
  endfacet
endsolid part