solid part
  facet normal 0 0 0
    outer loop
      vertex 0 0 0
      vertex 25 0 0
      vertex 25 25 0
    endloop
  endfacet
  facet normal 0 0 0
    outer loop
      vertex 0 0 0
      vertex 25 25 0
      vertex 0 25 0
    endloop
  endfacet
  facet normal 0 0 0
    outer loop
      vertex 0 0 35
      vertex 25 0 35
      vertex 25 25 35
    endloop
  endfacet
  facet normal 0 0 0
    outer loop
      vertex 0 0 35
      vertex 25 25 35
      vertex 0 25 35
    endloop
  endfacet
  facet normal 0 0 0
    outer loop
      vertex 0 0 0
      vertex 25 0 0
      vertex 25 0 35
    endloop
  endfacet
  facet normal 0 0 0
    outer loop
      vertex 0 0 0
      vertex 25 0 35
      vertex 0 0 35
    endloop
  endfacet
  facet normal 0 0 0
    outer loop
      vertex 25 25 0
      vertex 0 25 0
      vertex 0 25 35
    endloop
  endfacet
  facet normal 0 0 0
    outer loop
      vertex 25 25 0
      vertex 0 25 35
      vertex 25 25 35
    endloop
  endfacet
  facet normal 0 0 0
    outer loop
      vertex 25 0 0
      vertex 25 25 0
      vertex 25 25 35
    endloop
  endfacet
  facet normal 0 0 0
    outer loop
      vertex 25 0 0
      vertex 25 25 35
      vertex 25 0 35
    endloop
  endfacet
  facet normal 0 0 0
    outer loop
      vertex 0 0 0
      vertex 0 25 0
      vertex 0 25 35
    endloop
  endfacet
  facet normal 0 0 0
    outer loop
      vertex 0 0 0
      vertex 0 25 35
      vertex 0 0 35
    endloop
  endfacet
endsolid part