solid part
  facet normal 0 0 0
    outer loop
      vertex 0 0 0
      vertex 70 0 0
      vertex 70 45 0
    endloop
  endfacet
  facet normal 0 0 0
    outer loop
      vertex 0 0 0
      vertex 70 45 0
      vertex 0 45 0
    endloop
  endfacet
  facet normal 0 0 0
    outer loop
      vertex 0 0 35
      vertex 70 0 35
      vertex 70 45 35
    endloop
  endfacet
  facet normal 0 0 0
    outer loop
      vertex 0 0 35
      vertex 70 45 35
      vertex 0 45 35
    endloop
  endfacet
  facet normal 0 0 0
    outer loop
      vertex 0 0 0
      vertex 70 0 0
      vertex 70 0 35
    endloop
  endfacet
  facet normal 0 0 0
    outer loop
      vertex 0 0 0
      vertex 70 0 35
      vertex 0 0 35
    endloop
  endfacet
  facet normal 0 0 0
    outer loop
      vertex 70 45 0
      vertex 0 45 0
      vertex 0 45 35
    endloop
  endfacet
  facet normal 0 0 0
    outer loop
      vertex 70 45 0
      vertex 0 45 35
      vertex 70 45 35
    endloop
  endfacet
  facet normal 0 0 0
    outer loop
      vertex 70 0 0
      vertex 70 45 0
      vertex 70 45 35
    endloop
  endfacet
  facet normal 0 0 0
    outer loop
      vertex 70 0 0
      vertex 70 45 35
      vertex 70 0 35
    endloop
  endfacet
  facet normal 0 0 0
    outer loop
      vertex 0 0 0
      vertex 0 45 0
      vertex 0 45 35
    endloop
  endfacet
  facet normal 0 0 0
    outer loop
      vertex 0 0 0
      vertex 0 45 35
      vertex 0 0 35
    endloop
  endfacet
endsolid part