solid part
  facet normal 0 0 0
    outer loop
      vertex 0 0 0
      vertex 35 0 0
      vertex 35 25 0
    endloop
  endfacet
  facet normal 0 0 0
    outer loop
      vertex 0 0 0
      vertex 35 25 0
      vertex 0 25 0
    endloop
  endfacet
  facet normal 0 0 0
    outer loop
      vertex 0 0 25
      vertex 35 0 25
      vertex 35 25 25
    endloop
  endfacet
  facet normal 0 0 0
    outer loop
      vertex 0 0 25
      vertex 35 25 25
      vertex 0 25 25
    endloop
  endfacet
  facet normal 0 0 0
    outer loop
      vertex 0 0 0
      vertex 35 0 0
      vertex 35 0 25
    endloop
  endfacet
  facet normal 0 0 0
    outer loop
      vertex 0 0 0
      vertex 35 0 25
      vertex 0 0 25
    endloop
  endfacet
  facet normal 0 0 0
    outer loop
      vertex 35 25 0
      vertex 0 25 0
      vertex 0 25 25
    endloop
  endfacet
  facet normal 0 0 0
    outer loop
      vertex 35 25 0
      vertex 0 25 25
      vertex 35 25 25
    endloop
  endfacet
  facet normal 0 0 0
    outer loop
      vertex 35 0 0
      vertex 35 25 0
      vertex 35 25 25
    endloop
  endfacet
  facet normal 0 0 0
    outer loop
      vertex 35 0 0
      vertex 35 25 25
      vertex 35 0 25
    endloop
  endfacet
  facet normal 0 0 0
    outer loop
      vertex 0 0 0
      vertex 0 25 0
      vertex 0 25 25
    endloop
  endfacet
  facet normal 0 0 0
    outer loop
      vertex 0 0 0
      vertex 0 25 25
      vertex 0 0 25
    endloop
  endfacet
endsolid part