solid part
  facet normal 0 0 0
    outer loop
      vertex 0 0 0
      vertex 70 0 0
      vertex 70 70 0
    endloop
  endfacet
  facet normal 0 0 0
    outer loop
      vertex 0 0 0
      vertex 70 70 0
      vertex 0 70 0
    endloop
  endfacet
  facet normal 0 0 0
    outer loop
      vertex 0 0 12
      vertex 70 0 12
      vertex 70 70 12
    endloop
  endfacet
  facet normal 0 0 0
    outer loop
      vertex 0 0 12
      vertex 70 70 12
      vertex 0 70 12
    endloop
  endfacet
  facet normal 0 0 0
    outer loop
      vertex 0 0 0
      vertex 70 0 0
      vertex 70 0 12
    endloop
  endfacet
  facet normal 0 0 0
    outer loop
      vertex 0 0 0
      vertex 70 0 12
      vertex 0 0 12
    endloop
  endfacet
  facet normal 0 0 0
    outer loop
      vertex 70 70 0
      vertex 0 70 0
      vertex 0 70 12
    endloop
  endfacet
  facet normal 0 0 0
    outer loop
      vertex 70 70 0
      vertex 0 70 12
      vertex 70 70 12
    endloop
  endfacet
  facet normal 0 0 0
    outer loop
      vertex 70 0 0
      vertex 70 70 0
      vertex 70 70 12
    endloop
  endfacet
  facet normal 0 0 0
    outer loop
      vertex 70 0 0
      vertex 70 70 12
      vertex 70 0 12
    endloop
  endfacet
  facet normal 0 0 0
    outer loop
      vertex 0 0 0
      vertex 0 70 0
      vertex 0 70 12
    endloop
  endfacet
  facet normal 0 0 0
    outer loop
      vertex 0 0 0
      vertex 0 70 12
      vertex 0 0 12
    endloop
  endfacet
endsolid part